<svg width="256" height="256" viewBox="0 0 256 256" fill="none" xmlns="http://www.w3.org/2000/svg">
<rect width="256" height="256" rx="128" fill="black"/>
<path d="M62.4486 71.1112H55.2722C48.8024 71.1112 45.5675 71.1112 43.698 72.4698C42.0673 73.6548 41.0163 75.4763 40.8062 77.4811C40.5653 79.7795 42.1839 82.5803 45.4212 88.182L110.632 201.019L124.078 178.621L93.545 125.986H111.474L133.528 164.163L147.276 140.364L107.27 71.1111H80.3772L102.788 110.307H84.8594L62.4486 71.1112Z" fill="#F32424"/>
<path d="M143.127 71.1111H116.234L155.453 139.001L115.129 208.804L118.163 214.057C121.397 219.654 123.013 222.452 125.124 223.392C126.964 224.211 129.066 224.211 130.907 223.392C133.017 222.452 134.634 219.654 137.867 214.057L137.867 214.057L210.584 88.1802C213.82 82.579 215.438 79.7783 215.196 77.4801C214.986 75.4755 213.935 73.6544 212.304 72.4695C210.435 71.1111 207.201 71.1111 200.732 71.1111H194.672L168.9 115.907L143.127 71.1111Z" fill="#F32424"/>
</svg>
